<svg id="Layer_1" enable-background="new 0 0 64 64" height="512" viewBox="0 0 64 64" width="512" xmlns="http://www.w3.org/2000/svg"><path d="m45.53 48.98c-.271 0-.521-.1-.711-.29-.189-.19-.289-.45-.289-.71s.1-.52.289-.7c.37-.38 1.04-.38 1.41 0 .19.18.301.44.301.7 0 .27-.11.52-.301.71-.179.19-.439.29-.699.29z"/><path d="m17.46 19.21c-.26 0-.52-.11-.71-.3-.18-.18-.29-.44-.29-.7 0-.27.11-.53.29-.71.38-.37 1.05-.37 1.42 0 .18.18.29.44.29.71 0 .26-.11.52-.29.7-.19.19-.44.3-.71.3z"/><path d="m46.623 44.983c-.048 0-.097-.003-.146-.011-.547-.08-.925-.587-.845-1.134.183-1.25.26-2.524.229-3.787-.013-.552.424-1.011.976-1.024h.024c.541 0 .986.432 1 .976.033 1.375-.051 2.763-.25 4.125-.072.497-.5.855-.988.855z"/><path d="m44.091 56.983c-.547 0-.993-.44-1-.988l-.012-.977c-.015-1.079.081-2.164.283-3.224.104-.543.626-.895 1.17-.794.543.104.898.628.795 1.17-.178.927-.261 1.876-.248 2.822l.012.978c.007.552-.436 1.005-.988 1.012-.004.001-.008.001-.012.001z"/><path d="m44.091 56.983h-14.727c-.552 0-1-.448-1-1s.448-1 1-1h14.727c.553 0 1 .448 1 1s-.447 1-1 1z"/><path d="m42.848 26.943c-.117 0-.235-.021-.351-.064-.518-.194-.779-.77-.586-1.287 2.135-5.7-.408-12.375-5.79-15.196-5.714-2.997-13.029-.922-16.307 4.624-.282.476-.895.632-1.37.352-.476-.281-.633-.895-.352-1.37 3.813-6.448 12.316-8.859 18.958-5.377 6.258 3.282 9.216 11.042 6.733 17.669-.149.401-.53.649-.935.649z"/><path d="m19.971 30.528c-.295 0-.587-.13-.785-.379-1.8-2.276-2.856-5.009-3.052-7.904-.038-.551.379-1.028.93-1.065.557-.032 1.028.379 1.065.93.169 2.49 1.077 4.841 2.625 6.798.343.433.27 1.062-.164 1.405-.183.145-.402.215-.619.215z"/><path d="m22.039 40.912c-.4 0-.778-.243-.932-.639-.72-1.855-1.482-3.837-2.183-5.879-.179-.522.099-1.091.621-1.271.521-.182 1.091.099 1.271.621.689 2.007 1.443 3.968 2.156 5.805.2.515-.055 1.094-.57 1.294-.12.047-.243.069-.363.069z"/><path d="m25.958 36.819c-.346 0-.683-.18-.868-.501-.961-1.671-3.048-2.27-4.751-1.365-.489.259-1.094.074-1.353-.413-.259-.488-.074-1.093.413-1.353 2.661-1.414 5.921-.477 7.424 2.133.275.479.111 1.09-.368 1.366-.157.09-.328.133-.497.133z"/><path d="m27.977 40.324c-.346 0-.683-.18-.868-.501l-2.019-3.505c-.275-.479-.111-1.09.368-1.366.478-.275 1.09-.11 1.366.368l2.019 3.505c.275.479.111 1.09-.368 1.366-.158.09-.329.133-.498.133z"/><path d="m29.363 56.983c-.487 0-.914-.356-.988-.853-.435-2.924-1.195-5.206-2.466-7.397-.491-.847-1.001-1.673-1.508-2.496-1.153-1.869-2.346-3.802-3.277-5.923-.222-.506.008-1.096.513-1.318.505-.224 1.096.008 1.318.513.876 1.994 1.979 3.783 3.148 5.677.517.838 1.036 1.68 1.537 2.542 1.384 2.388 2.247 4.964 2.714 8.107.081.546-.296 1.055-.842 1.136-.051.008-.1.012-.149.012z"/><path d="m23.729 26.435c-.334 0-.66-.167-.85-.471-1.663-2.667-1.756-5.957-.25-8.799 1.509-2.848 4.286-4.62 7.427-4.741 2.838-.117 5.59 1.208 7.351 3.527 1.762 2.32 2.294 5.322 1.425 8.032-.168.525-.729.816-1.258.646-.525-.168-.815-.732-.646-1.258.68-2.12.274-4.384-1.113-6.211-1.386-1.826-3.456-2.822-5.681-2.738-2.421.093-4.565 1.469-5.737 3.679-1.168 2.205-1.102 4.749.18 6.804.292.469.149 1.085-.319 1.378-.166.103-.348.152-.529.152z"/><path d="m32.818 22.278c-.552 0-1-.448-1-1 0-.429-.138-.765-.409-.998-.254-.218-.623-.344-1.013-.344-.146 0-1.421.038-1.421 1.342 0 .552-.448 1-1 1s-1-.448-1-1c0-2.194 1.721-3.342 3.421-3.342s3.421 1.148 3.421 3.342c.001.553-.446 1-.999 1z"/><path d="m37.66 30.802c-.553 0-1-.448-1-1 0-.429-.138-.765-.408-.999-.255-.218-.623-.344-1.013-.344-.146 0-1.421.038-1.421 1.342 0 .552-.447 1-1 1-.552 0-1-.448-1-1 0-2.194 1.721-3.342 3.421-3.342s3.421 1.148 3.421 3.342c0 .553-.447 1.001-1 1.001z"/><path d="m42.503 33.011c-.553 0-1-.448-1-1 0-.429-.138-.765-.408-.998-.255-.219-.624-.344-1.014-.344-.146 0-1.421.038-1.421 1.342 0 .552-.447 1-1 1s-1-.448-1-1c0-2.194 1.721-3.342 3.421-3.342s3.422 1.148 3.422 3.342c0 .552-.447 1-1 1z"/><path d="m42.503 39.288c-.553 0-1-.448-1-1v-6.276c0-.552.447-1 1-1s1 .448 1 1v6.276c0 .552-.447 1-1 1z"/><path d="m46.861 34.864c-.553 0-1-.448-1-1 0-1.055-.982-1.108-1.179-1.108s-1.18.053-1.18 1.108c0 .552-.447 1-1 1s-1-.448-1-1c0-4.08 6.358-4.083 6.358 0 .001.552-.446 1-.999 1z"/><path d="m46.861 41.027c-.553 0-1-.448-1-1v-6.163c0-.552.447-1 1-1s1 .448 1 1v6.163c0 .552-.447 1-1 1z"/><path d="m27.976 40.324c-.552 0-1-.448-1-1v-18.046c0-.552.448-1 1-1s1 .448 1 1v18.045c0 .553-.448 1.001-1 1.001z"/><path d="m37.66 37.808c-.553 0-1-.448-1-1v-7.006c0-.552.447-1 1-1s1 .448 1 1v7.006c0 .552-.447 1-1 1z"/><path d="m32.818 36.329c-.552 0-1-.448-1-1v-14.05c0-.552.448-1 1-1 .553 0 1 .448 1 1v14.05c0 .552-.447 1-1 1z"/></svg>